<?xml version="1.0" standalone="no"?>
<!DOCTYPE svg PUBLIC "-//W3C//DTD SVG 20010904//EN"
 "http://www.w3.org/TR/2001/REC-SVG-20010904/DTD/svg10.dtd">
<svg version="1.0" xmlns="http://www.w3.org/2000/svg"
 width="500.000000pt" height="500.000000pt" viewBox="0 0 500.000000 500.000000"
 preserveAspectRatio="xMidYMid meet">

<g transform="translate(0.000000,500.000000) scale(0.100000,-0.100000)"
fill="#000000" stroke="none">
<path d="M2083 4285 c-65 -28 -95 -150 -54 -225 35 -67 61 -74 286 -80 213 -6
231 -10 263 -57 16 -26 17 -134 22 -1814 5 -1946 1 -1803 61 -1835 38 -19 133
-18 176 2 74 36 67 -135 73 1854 4 1386 8 1790 17 1806 21 37 65 44 264 44
186 0 188 0 218 25 36 31 52 77 52 149 0 70 -21 111 -63 124 -20 6 -287 12
-658 15 -511 5 -631 3 -657 -8z"/>
<path d="M2162 3773 c3 -27 5 -28 68 -31 36 -1 75 -4 88 -7 53 -12 52 5 52
-1049 0 -890 1 -974 16 -980 46 -18 45 -44 42 1010 -3 986 -3 993 -24 1021
-33 46 -79 63 -167 63 l-78 0 3 -27z"/>
<path d="M3077 2614 c-10 -10 -8 -2096 2 -2112 5 -8 17 -12 27 -10 18 3 19 34
19 1063 0 1060 0 1060 -20 1063 -12 2 -24 0 -28 -4z"/>
</g>
</svg>
